<?xml version="1.0" encoding="utf-8"?>
<!-- Generator: Adobe Illustrator 27.8.1, SVG Export Plug-In . SVG Version: 6.00 Build 0)  -->
<svg version="1.1" id="Layer_1" xmlns="http://www.w3.org/2000/svg" xmlns:xlink="http://www.w3.org/1999/xlink" x="0px" y="0px"
	 viewBox="0 0 2000 2000" style="enable-background:new 0 0 2000 2000;" xml:space="preserve">
<style type="text/css">
	.st0{fill:#111111;}
	.st1{fill:#0000DC;}
	.st2{fill:#FFFFFF;}
	.st3{fill:#F05228;}
</style>
<g>
	<path class="st0" d="M876.1,1260.97c-5.35,0-9.16-1.13-11.44-3.39c-2.27-2.26-3.52-6.02-3.74-11.27c-0.02-0.78-0.04-1.64-0.04-2.57
		c0-0.94,0.02-1.87,0.07-2.81c0.05-0.94,0.13-1.79,0.26-2.57h10.29c-0.1,1.78-0.16,3.53-0.18,5.25c-0.02,1.73,0.04,3.31,0.18,4.74
		c0.12,1.19,0.55,2.11,1.29,2.75c0.74,0.65,1.84,0.97,3.3,0.97c1.44,0,2.49-0.32,3.16-0.97c0.67-0.64,1.08-1.56,1.22-2.75
		c0.1-0.83,0.16-1.65,0.2-2.46c0.04-0.82,0.04-1.63,0-2.45c-0.04-0.81-0.1-1.63-0.2-2.46c-0.1-1.02-0.41-1.95-0.95-2.77
		c-0.54-0.83-1.39-1.39-2.55-1.68l-5.98-1.53c-2.53-0.66-4.54-1.6-6.02-2.83s-2.56-2.76-3.23-4.58c-0.67-1.82-1.04-3.95-1.11-6.39
		c-0.02-1.07-0.04-2.03-0.04-2.86c0-0.84,0.01-1.71,0.04-2.61c0.15-3.48,0.74-6.29,1.77-8.43c1.03-2.14,2.66-3.7,4.87-4.69
		c2.21-0.98,5.16-1.48,8.83-1.48c5.18,0,8.94,1.13,11.27,3.37c2.34,2.25,3.61,5.99,3.83,11.22c0.05,1.05,0.05,2.32,0.02,3.83
		c-0.04,1.51-0.09,2.91-0.16,4.2h-10.51c0.07-1.68,0.12-3.36,0.15-5.04c0.02-1.68,0-3.36-0.07-5.03c-0.02-1.17-0.44-2.07-1.26-2.7
		c-0.82-0.63-1.9-0.95-3.27-0.95c-1.46,0-2.54,0.32-3.25,0.95c-0.71,0.63-1.13,1.53-1.28,2.7c-0.15,1.24-0.22,2.49-0.22,3.76
		c0,1.27,0.07,2.52,0.22,3.76c0.12,0.97,0.46,1.86,1.02,2.66c0.56,0.8,1.46,1.35,2.7,1.64l5.18,1.24c2.72,0.66,4.87,1.62,6.44,2.9
		c1.57,1.28,2.7,2.86,3.39,4.74c0.69,1.88,1.09,4.08,1.19,6.58c0.02,0.56,0.04,1.14,0.04,1.75c0,0.61-0.01,1.22-0.04,1.82
		c-0.02,0.61-0.05,1.19-0.07,1.75c-0.22,5.25-1.48,9.01-3.78,11.27C885.35,1259.84,881.5,1260.97,876.1,1260.97z"/>
	<path class="st0" d="M896.28,1260.24v-58.38h25.25v9.63h-14.3v14.23h13.57v9.63h-13.57v15.25h14.3v9.63H896.28z"/>
	<path class="st0" d="M926.05,1260.24v-58.38h11.68l-0.15,14.16l-1.97,13.06h1.97l3.5-13.06l5.25-14.16h11.97l-9.71,24.01
		l10.14,34.37h-11.09l-6.35-22.26l-4.09,8.83v13.43H926.05z"/>
	<path class="st0" d="M962.28,1260.24v-58.38h14.08c5.45,0,9.38,1.1,11.8,3.3c2.42,2.2,3.72,5.84,3.89,10.93
		c0.05,1.36,0.08,2.55,0.09,3.58c0.01,1.02,0.01,2.04,0,3.06c-0.01,1.02-0.04,2.21-0.09,3.58c-0.1,3.16-0.63,5.75-1.59,7.77
		c-0.96,2.02-2.45,3.56-4.47,4.63l6.86,21.53h-11.6l-5.55-19.7h-2.48v19.7H962.28z M973.23,1230.91h3.14c1.53,0,2.69-0.35,3.47-1.06
		c0.78-0.7,1.2-1.69,1.28-2.95c0.07-1.19,0.12-2.44,0.15-3.74s0.02-2.6,0-3.9c-0.02-1.3-0.07-2.55-0.15-3.74
		c-0.07-1.29-0.5-2.28-1.28-2.97c-0.78-0.69-1.93-1.04-3.47-1.04h-3.14V1230.91z"/>
	<path class="st0" d="M997.09,1260.24v-58.38h25.25v9.63h-14.3v14.23h13.57v9.63h-13.57v15.25h14.3v9.63H997.09z"/>
	<path class="st0" d="M1033.75,1260.24v-48.74h-9.38v-9.63h29.7v9.63h-9.38v48.74H1033.75z"/>
	<path class="st0" d="M1057.43,1260.24v-58.38h25.25v9.63h-14.3v14.23h13.57v9.63h-13.57v15.25h14.3v9.63H1057.43z"/>
	<path class="st0" d="M1101.62,1260.97c-5.35,0-9.16-1.13-11.44-3.39c-2.27-2.26-3.52-6.02-3.74-11.27
		c-0.02-0.78-0.04-1.64-0.04-2.57c0-0.94,0.02-1.87,0.07-2.81c0.05-0.94,0.13-1.79,0.26-2.57h10.29c-0.1,1.78-0.16,3.53-0.18,5.25
		c-0.03,1.73,0.04,3.31,0.18,4.74c0.12,1.19,0.55,2.11,1.29,2.75c0.74,0.65,1.84,0.97,3.3,0.97c1.44,0,2.49-0.32,3.16-0.97
		c0.67-0.64,1.08-1.56,1.22-2.75c0.1-0.83,0.16-1.65,0.2-2.46c0.04-0.82,0.04-1.63,0-2.45c-0.04-0.81-0.1-1.63-0.2-2.46
		c-0.1-1.02-0.41-1.95-0.95-2.77c-0.54-0.83-1.39-1.39-2.55-1.68l-5.98-1.53c-2.53-0.66-4.54-1.6-6.02-2.83
		c-1.48-1.23-2.56-2.76-3.23-4.58c-0.67-1.82-1.04-3.95-1.11-6.39c-0.02-1.07-0.04-2.03-0.04-2.86c0-0.84,0.01-1.71,0.04-2.61
		c0.15-3.48,0.74-6.29,1.77-8.43c1.03-2.14,2.66-3.7,4.87-4.69c2.21-0.98,5.16-1.48,8.83-1.48c5.18,0,8.94,1.13,11.27,3.37
		c2.34,2.25,3.61,5.99,3.83,11.22c0.05,1.05,0.05,2.32,0.02,3.83c-0.04,1.51-0.09,2.91-0.16,4.2h-10.51
		c0.07-1.68,0.12-3.36,0.15-5.04c0.02-1.68,0-3.36-0.07-5.03c-0.02-1.17-0.44-2.07-1.26-2.7c-0.82-0.63-1.9-0.95-3.27-0.95
		c-1.46,0-2.54,0.32-3.25,0.95c-0.71,0.63-1.13,1.53-1.28,2.7c-0.15,1.24-0.22,2.49-0.22,3.76c0,1.27,0.07,2.52,0.22,3.76
		c0.12,0.97,0.46,1.86,1.02,2.66c0.56,0.8,1.46,1.35,2.7,1.64l5.18,1.24c2.72,0.66,4.87,1.62,6.44,2.9c1.57,1.28,2.7,2.86,3.39,4.74
		c0.69,1.88,1.09,4.08,1.19,6.58c0.02,0.56,0.04,1.14,0.04,1.75c0,0.61-0.01,1.22-0.04,1.82c-0.02,0.61-0.05,1.19-0.07,1.75
		c-0.22,5.25-1.48,9.01-3.78,11.27C1110.87,1259.84,1107.02,1260.97,1101.62,1260.97z"/>
	<path class="st0" d="M1136.21,1260.97c-5.35,0-9.16-1.13-11.44-3.39c-2.27-2.26-3.52-6.02-3.74-11.27
		c-0.03-0.78-0.04-1.64-0.04-2.57c0-0.94,0.02-1.87,0.07-2.81c0.05-0.94,0.13-1.79,0.26-2.57h10.29c-0.1,1.78-0.16,3.53-0.18,5.25
		c-0.02,1.73,0.04,3.31,0.18,4.74c0.12,1.19,0.55,2.11,1.29,2.75c0.74,0.65,1.84,0.97,3.3,0.97c1.44,0,2.49-0.32,3.16-0.97
		c0.67-0.64,1.08-1.56,1.22-2.75c0.1-0.83,0.16-1.65,0.2-2.46c0.04-0.82,0.04-1.63,0-2.45c-0.04-0.81-0.1-1.63-0.2-2.46
		c-0.1-1.02-0.41-1.95-0.95-2.77c-0.54-0.83-1.39-1.39-2.55-1.68l-5.98-1.53c-2.53-0.66-4.54-1.6-6.02-2.83
		c-1.48-1.23-2.56-2.76-3.23-4.58c-0.67-1.82-1.04-3.95-1.11-6.39c-0.02-1.07-0.04-2.03-0.04-2.86c0-0.84,0.01-1.71,0.04-2.61
		c0.15-3.48,0.74-6.29,1.77-8.43c1.03-2.14,2.66-3.7,4.87-4.69c2.21-0.98,5.16-1.48,8.83-1.48c5.18,0,8.94,1.13,11.27,3.37
		c2.34,2.25,3.61,5.99,3.83,11.22c0.05,1.05,0.05,2.32,0.02,3.83c-0.04,1.51-0.09,2.91-0.16,4.2h-10.51
		c0.07-1.68,0.12-3.36,0.15-5.04c0.02-1.68,0-3.36-0.07-5.03c-0.03-1.17-0.44-2.07-1.26-2.7c-0.82-0.63-1.9-0.95-3.27-0.95
		c-1.46,0-2.54,0.32-3.25,0.95c-0.71,0.63-1.13,1.53-1.28,2.7c-0.15,1.24-0.22,2.49-0.22,3.76c0,1.27,0.07,2.52,0.22,3.76
		c0.12,0.97,0.46,1.86,1.02,2.66c0.56,0.8,1.46,1.35,2.7,1.64l5.18,1.24c2.72,0.66,4.87,1.62,6.44,2.9c1.57,1.28,2.7,2.86,3.39,4.74
		c0.69,1.88,1.09,4.08,1.19,6.58c0.02,0.56,0.04,1.14,0.04,1.75c0,0.61-0.01,1.22-0.04,1.82c-0.02,0.61-0.05,1.19-0.07,1.75
		c-0.22,5.25-1.48,9.01-3.78,11.27C1145.45,1259.84,1141.61,1260.97,1136.21,1260.97z"/>
</g>
<path class="st3" d="M1125.52,914.16L1043,866.52l49.95-28.84c12.93-7.47,7.63-27.23-7.3-27.23H952.27
	c-40.3,0-72.97,32.67-72.97,72.97v141.07c0,10.43,5.56,20.06,14.59,25.28l82.52,47.65l-59.38,34.28
	c-10.34,5.97-6.11,21.79,5.84,21.79h144.27c40.3,0,72.97-32.67,72.97-72.97V939.44C1140.12,929.01,1134.56,919.38,1125.52,914.16z
	 M962.5,998.61c-9.78,0-17.7-7.93-17.7-17.7c0-9.78,7.93-17.7,17.7-17.7c9.78,0,17.71,7.93,17.71,17.7
	C980.21,990.68,972.28,998.61,962.5,998.61z M1009.71,999.31c-9.78,0-17.7-7.93-17.7-17.7s7.93-17.7,17.7-17.7
	c9.78,0,17.7,7.93,17.7,17.7S1019.49,999.31,1009.71,999.31z M1056.92,999.31c-9.78,0-17.7-7.93-17.7-17.7s7.92-17.7,17.7-17.7
	c9.78,0,17.7,7.93,17.7,17.7S1066.69,999.31,1056.92,999.31z"/>
</svg>
