<?xml version="1.0" encoding="utf-8"?>
<!-- Generator: Adobe Illustrator 27.8.1, SVG Export Plug-In . SVG Version: 6.00 Build 0)  -->
<svg version="1.1" id="Layer_1" xmlns="http://www.w3.org/2000/svg" xmlns:xlink="http://www.w3.org/1999/xlink" x="0px" y="0px"
	 viewBox="0 0 2000 2000" style="enable-background:new 0 0 2000 2000;" xml:space="preserve">
<style type="text/css">
	.st0{fill:#111111;}
	.st1{fill:#0000DC;}
	.st2{fill:#FFFFFF;}
	.st3{fill:#F05228;}
</style>
<rect x="-2.91" class="st3" width="2000" height="2000"/>
<path class="st2" d="M1117.75,932.2l-82.52-47.65l49.95-28.84c12.93-7.47,7.63-27.23-7.3-27.23H944.5
	c-40.3,0-72.97,32.67-72.97,72.97v141.07c0,10.43,5.56,20.06,14.59,25.28l82.52,47.65l-59.38,34.28
	c-10.34,5.97-6.11,21.79,5.84,21.79h144.27c40.3,0,72.97-32.67,72.97-72.97V957.48C1132.35,947.05,1126.79,937.41,1117.75,932.2z
	 M954.73,1016.64c-9.78,0-17.7-7.93-17.7-17.7c0-9.78,7.93-17.7,17.7-17.7c9.78,0,17.71,7.93,17.71,17.7
	C972.44,1008.72,964.51,1016.64,954.73,1016.64z M1001.94,1017.35c-9.78,0-17.7-7.93-17.7-17.7s7.93-17.7,17.7-17.7
	c9.78,0,17.7,7.93,17.7,17.7S1011.72,1017.35,1001.94,1017.35z M1049.15,1017.35c-9.78,0-17.7-7.93-17.7-17.7s7.92-17.7,17.7-17.7
	c9.78,0,17.7,7.93,17.7,17.7S1058.92,1017.35,1049.15,1017.35z"/>
</svg>
